<?xml version="1.0" encoding="UTF-8"?>
<svg id="Layer_17" data-name="Layer 17" xmlns="http://www.w3.org/2000/svg" viewBox="0 0 64 70.47">
  <defs>
    <style>
      .cls-1 {
        fill: #f36a59;
      }
    </style>
  </defs>
  <rect class="cls-1" x="2.72" y="39.7" width="59.25" height="9.17" rx="4.58" ry="4.58"/>
  <path class="cls-1" d="M12.71,35.82H50.26c7.28,0,13.12-5.6,13.12-12.58,0-6.98-5.84-12.58-13.05-12.58-.99,0-1.9,.15-2.88,.29-2.96-5.6-8.95-9.45-15.93-9.45-8.42,0-15.4,5.6-17.37,13.09-.46-.07-.91-.15-1.44-.15-6.14,0-11.15,4.8-11.15,10.69s5.01,10.69,11.15,10.69h0Z"/>
  <path class="cls-1" d="M2.72,57.81q0-4.33,29.62-4.36t29.62,4.36c0,8.71-13.26,10.46-29.62,10.46-16.36,0-29.62-.87-29.62-10.46Z"/>
</svg>